<svg xmlns="http://www.w3.org/2000/svg"
 xmlns:xlink="http://www.w3.org/1999/xlink"
 width="84px" height="63px"  viewBox="0 0 84 63">
<path fill-rule="evenodd"  fill="#000000"
 d="M81.49127,9.549118 C81.49127,9.549118 77.88098,9.549118 77.88098,9.549118 C77.88098,9.549118 77.88098,6.1285553 77.88098,6.1285553 C77.88098,5.3624268 77.308105,4.717758 76.54846,4.6283417 C76.54846,4.6283417 55.630432,2.1684418 55.630432,2.1684418 C50.939453,1.6166229 46.243713,2.402069 41.999817,4.440628 C37.755615,2.402069 33.06073,1.6164093 28.36908,2.1684418 C28.36908,2.1684418 7.451111,4.6283417 7.451111,4.6283417 C6.6914062,4.717758 6.1185913,5.3624268 6.1185913,6.1285553 C6.1185913,6.1285553 6.1185913,9.549118 6.1185913,9.549118 C6.1185913,9.549118 2.508606,9.549118 2.508606,9.549118 C1.675354,9.549118 1.0001221,10.225418 1.0001221,11.059601 C1.0001221,11.059601 1.0001221,60.489365 1.0001221,60.489365 C1.0001221,61.323578 1.675354,61.999847 2.508606,61.999847 C2.508606,61.999847 81.49127,61.999847 81.49127,61.999847 C82.324646,61.999847 82.99982,61.323578 82.99982,60.489365 C82.99982,60.489365 82.99982,11.059601 82.99982,11.059601 C82.99982,10.225418 82.3244,9.549118 81.49127,9.549118 ZM55.278442,5.1688995 C55.278442,5.1688995 74.86371,7.4720764 74.86371,7.4720764 C74.86371,7.4720764 74.86371,52.39554 74.86371,52.39554 C74.86371,52.39554 55.630432,50.133835 55.630432,50.133835 C51.488464,49.646652 47.343323,50.20372 43.5083,51.74362 C43.5083,51.74362 43.5083,7.069702 43.5083,7.069702 C47.183167,5.350754 51.233032,4.6931763 55.278442,5.1688995 ZM28.721313,5.1688995 C32.76648,4.692978 36.816772,5.350754 40.491455,7.069702 C40.491455,7.069702 40.491455,51.74402 40.491455,51.74402 C37.558105,50.566223 34.443787,49.96225 31.287964,49.96225 C30.317871,49.96225 29.343445,50.01924 28.369324,50.133636 C28.369324,50.133636 9.135803,52.39534 9.135803,52.39534 C9.135803,52.39534 9.135803,7.4720764 9.135803,7.4720764 C9.135803,7.4720764 28.721313,5.1688995 28.721313,5.1688995 ZM79.98279,58.97888 C79.98279,58.97888 4.017151,58.97888 4.017151,58.97888 C4.017151,58.97888 4.017151,12.570114 4.017151,12.570114 C4.017151,12.570114 6.1187744,12.570114 6.1187744,12.570114 C6.1187744,12.570114 6.1187744,54.093735 6.1187744,54.093735 C6.1187744,54.525146 6.3027954,54.93579 6.624817,55.222397 C6.9467163,55.508972 7.3757324,55.644318 7.8032837,55.593964 C7.8032837,55.593964 28.721313,53.134064 28.721313,53.134064 C33.067383,52.62274 37.41992,53.418457 41.305664,55.43486 C41.740906,55.660828 42.258667,55.660828 42.69391,55.43486 C46.579346,53.418457 50.93036,52.62274 55.27826,53.134064 C55.27826,53.134064 76.196045,55.593964 76.196045,55.593964 C76.25476,55.600815 76.31348,55.604233 76.37207,55.604233 C76.7395,55.604233 77.096924,55.469696 77.37451,55.222397 C77.69647,54.93579 77.880554,54.525146 77.880554,54.093735 C77.880554,54.093735 77.880554,12.570114 77.880554,12.570114 C77.880554,12.570114 79.98236,12.570114 79.98236,12.570114 C79.98236,12.570114 79.98236,58.97888 79.98236,58.97888 C79.98236,58.97888 79.98279,58.97888 79.98279,58.97888 ZM46.982727,13.678192 C49.68628,12.942688 52.46881,12.735855 55.250732,13.062729 C55.250732,13.062729 70.9563,14.909149 70.9563,14.909149 C71.016235,14.916183 71.07556,14.919617 71.13434,14.919617 C71.888794,14.919617 72.540405,14.353897 72.630554,13.585144 C72.72748,12.756607 72.13556,12.00618 71.30829,11.908905 C71.30829,11.908905 55.602478,10.062485 55.602478,10.062485 C52.43457,9.690079 49.268616,9.925934 46.191833,10.763153 C45.387695,10.981873 44.913208,11.811844 45.13159,12.616837 C45.350037,13.421829 46.179565,13.896713 46.982727,13.678192 ZM12.809509,14.919617 C12.868286,14.919617 12.927795,14.916183 12.987549,14.909149 C12.987549,14.909149 28.691711,13.062912 28.691711,13.062912 C31.46997,12.738861 34.28485,12.950546 36.960205,13.680206 C37.76367,13.899139 38.5932,13.42485 38.81195,12.619644 C39.031067,11.814636 38.556763,10.984482 37.752808,10.765366 C34.70685,9.934586 31.505188,9.693314 28.340942,10.062485 C28.340942,10.062485 12.635315,11.908905 12.635315,11.908905 C11.808044,12.00618 11.216003,12.756607 11.31311,13.585144 C11.403381,14.353897 12.055054,14.919617 12.809509,14.919617 ZM46.982727,20.606537 C49.68628,19.871017 52.468445,19.664185 55.250732,19.991043 C55.250732,19.991043 70.9563,21.837479 70.9563,21.837479 C71.016235,21.844528 71.07556,21.847961 71.13434,21.847961 C71.888794,21.847961 72.540405,21.282211 72.630554,20.513489 C72.72748,19.684921 72.13556,18.93451 71.30829,18.83722 C71.30829,18.83722 55.602478,16.990814 55.602478,16.990814 C52.434998,16.618622 49.2688,16.854248 46.191833,17.691483 C45.387695,17.910187 44.913208,18.740158 45.13159,19.54515 C45.350037,20.34993 46.179565,20.825256 46.982727,20.606537 ZM12.809509,21.847733 C12.868286,21.847733 12.927795,21.844315 12.987549,21.837265 C12.987549,21.837265 28.691711,19.991043 28.691711,19.991043 C31.46814,19.667206 34.284607,19.878662 36.960205,20.608337 C37.76367,20.827255 38.5932,20.352951 38.81195,19.54776 C39.031067,18.742767 38.556763,17.912613 37.752808,17.693497 C34.70642,16.862717 31.503784,16.621445 28.340942,16.990616 C28.340942,16.990616 12.635315,18.837036 12.635315,18.837036 C11.808044,18.93431 11.216003,19.684723 11.31311,20.513275 C11.403381,21.282013 12.055054,21.847733 12.809509,21.847733 ZM46.982727,27.534653 C49.68628,26.799149 52.468445,26.5923 55.250732,26.919174 C55.250732,26.919174 70.9563,28.76561 70.9563,28.76561 C71.016235,28.77266 71.07556,28.776077 71.13434,28.776077 C71.888794,28.776077 72.540405,28.210342 72.630554,27.44159 C72.72748,26.613052 72.13556,25.862625 71.30829,25.76535 C71.30829,25.76535 55.602478,23.91893 55.602478,23.91893 C52.434998,23.546753 49.2688,23.782593 46.191833,24.619598 C45.387695,24.838318 44.913208,25.66829 45.13159,26.473282 C45.350037,27.278275 46.179565,27.753372 46.982727,27.534653 ZM12.809509,28.776077 C12.868286,28.776077 12.927795,28.77266 12.987549,28.76561 C12.987549,28.76561 28.691711,26.919388 28.691711,26.919388 C31.467957,26.595535 34.284607,26.806992 36.960205,27.536667 C37.76367,27.755798 38.5932,27.281296 38.81195,26.476105 C39.031067,25.671112 38.556763,24.840927 37.752808,24.62181 C34.706604,23.791061 31.503967,23.549774 28.340942,23.918747 C28.340942,23.918747 12.635315,25.765152 12.635315,25.765152 C11.808044,25.862442 11.216003,26.612854 11.31311,27.441406 C11.403381,28.210342 12.055054,28.776077 12.809509,28.776077 ZM46.982727,34.462784 C49.685913,33.72728 52.468018,33.520233 55.250732,33.847305 C55.250732,33.847305 70.9563,35.69374 70.9563,35.69374 C71.016235,35.70079 71.07556,35.70421 71.13434,35.70421 C71.888794,35.70421 72.540405,35.13846 72.630554,34.36972 C72.72748,33.54117 72.13556,32.790756 71.30829,32.69348 C71.30829,32.69348 55.602478,30.847061 55.602478,30.847061 C52.434998,30.475067 49.26892,30.71051 46.191833,31.54773 C45.387695,31.766449 44.913208,32.596405 45.13159,33.401413 C45.350037,34.206406 46.179565,34.6817 46.982727,34.462784 ZM12.809509,35.70421 C12.868286,35.70421 12.927795,35.70079 12.987549,35.69374 C12.987549,35.69374 28.691711,33.84752 28.691711,33.84752 C31.467346,33.523438 34.28424,33.734924 36.960205,34.464798 C37.76367,34.6837 38.5932,34.209427 38.81195,33.404236 C39.031067,32.599243 38.556763,31.769058 37.752808,31.549942 C34.706604,30.719177 31.503113,30.47789 28.340942,30.847061 C28.340942,30.847061 12.635315,32.69348 12.635315,32.69348 C11.808044,32.790756 11.216003,33.54117 11.31311,34.36972 C11.403381,35.13846 12.055054,35.70421 12.809509,35.70421 ZM71.30847,39.621597 C71.30847,39.621597 55.60266,37.775192 55.60266,37.775192 C52.43457,37.403 49.268616,37.638855 46.192017,38.47586 C45.38788,38.69458 44.91339,39.524536 45.131836,40.32953 C45.35028,41.13472 46.17975,41.610016 46.98285,41.391098 C49.686523,40.655792 52.468994,40.44896 55.250916,40.775635 C55.250916,40.775635 70.95648,42.622055 70.95648,42.622055 C71.01642,42.629105 71.075745,42.632523 71.13452,42.632523 C71.88898,42.632523 72.54065,42.066803 72.6308,41.298065 C72.72766,40.469513 72.13574,39.718887 71.30847,39.621597 ZM12.809509,42.632523 C12.868286,42.632523 12.927795,42.629105 12.987549,42.622055 C12.987549,42.622055 28.691711,40.775833 28.691711,40.775833 C31.46814,40.45198 34.284607,40.663452 36.960205,41.393112 C37.76367,41.612244 38.5932,41.13774 38.81195,40.33255 C39.031067,39.527557 38.556763,38.697403 37.752808,38.47827 C34.70642,37.647507 31.503784,37.40622 28.340942,37.775375 C28.340942,37.775375 12.635315,39.621826 12.635315,39.621826 C11.808044,39.719086 11.216003,40.469513 11.31311,41.298065 C11.403381,42.066803 12.055054,42.632523 12.809509,42.632523 Z"/>
</svg>