<svg xmlns="http://www.w3.org/2000/svg"
 xmlns:xlink="http://www.w3.org/1999/xlink"
 width="74px" height="81px"  viewBox="0 0 74 81">
<path fill-rule="evenodd"  fill="#000000"
 d="M67.22351,56.375473 C67.22351,56.375473 64.31848,56.375473 64.31848,56.375473 C64.31848,56.375473 64.31848,53.514923 64.31848,53.514923 C64.31848,52.796814 63.729614,52.2146 63.003174,52.2146 C63.003174,52.2146 27.752563,52.2146 27.752563,52.2146 C27.026123,52.2146 26.437256,52.796814 26.437256,53.514923 C26.437256,53.514923 26.437256,64.87038 26.437256,64.87038 C26.437256,72.66156 32.849243,79.00003 40.730713,79.00003 C40.730713,79.00003 50.02527,79.00003 50.02527,79.00003 C54.381714,79.00003 58.286865,77.06099 60.910645,74.01271 C60.910645,74.01271 67.54053,70.77298 67.54053,70.77298 C70.90796,69.12764 72.999756,65.79863 72.999756,62.085434 C72.999756,58.936935 70.40845,56.375473 67.22351,56.375473 ZM61.687866,62.144913 C61.687866,62.144913 29.067993,62.144913 29.067993,62.144913 C29.067993,62.144913 29.067993,60.931442 29.067993,60.931442 C29.067993,60.931442 61.687866,60.931442 61.687866,60.931442 C61.687866,60.931442 61.687866,62.144913 61.687866,62.144913 ZM61.687866,54.815247 C61.687866,54.815247 61.687866,58.33081 61.687866,58.33081 C61.687866,58.33081 29.067993,58.33081 29.067993,58.33081 C29.067993,58.33081 29.067993,54.815247 29.067993,54.815247 C29.067993,54.815247 61.687866,54.815247 61.687866,54.815247 ZM50.025024,76.3994 C50.025024,76.3994 40.73059,76.3994 40.73059,76.3994 C34.299805,76.3994 29.067749,71.2274 29.067749,64.87038 C29.067749,64.87038 29.067749,64.74571 29.067749,64.74571 C29.067749,64.74571 61.687622,64.74571 61.687622,64.74571 C61.687622,64.74571 61.687622,64.87038 61.687622,64.87038 C61.687866,71.22757 56.45581,76.3994 50.025024,76.3994 ZM66.374756,68.44159 C66.374756,68.44159 63.37671,69.90662 63.37671,69.90662 C63.983032,68.34102 64.31848,66.644196 64.31848,64.87038 C64.31848,64.87038 64.31848,58.976105 64.31848,58.976105 C64.31848,58.976105 67.22351,58.976105 67.22351,58.976105 C68.957886,58.976105 70.3689,60.370926 70.3689,62.085434 C70.3689,64.80223 68.83838,67.23784 66.374756,68.44159 ZM25.526978,70.98709 C25.526978,70.98709 3.6309814,70.98709 3.6309814,70.98709 C3.6309814,70.98709 3.6309814,14.5551605 3.6309814,14.5551605 C3.6309814,14.5551605 43.15222,14.5551605 43.15222,14.5551605 C43.15222,14.5551605 43.15222,48.513702 43.15222,48.513702 C43.15222,49.231827 43.74121,49.81404 44.46765,49.81404 C45.19409,49.81404 45.78308,49.231827 45.78308,48.513702 C45.78308,48.513702 45.78308,13.254837 45.78308,13.254837 C45.78308,12.536728 45.19409,11.954529 44.46765,11.954529 C44.46765,11.954529 2.3155518,11.954529 2.3155518,11.954529 C1.5891113,11.954529 1.0001221,12.536728 1.0001221,13.254837 C1.0001221,13.254837 1.0001221,72.287415 1.0001221,72.287415 C1.0001221,73.005554 1.5891113,73.58775 2.3155518,73.58775 C2.3155518,73.58775 25.5271,73.58775 25.5271,73.58775 C26.253662,73.58775 26.84253,73.005554 26.84253,72.287415 C26.84253,71.569305 26.253418,70.98709 25.526978,70.98709 ZM21.779663,19.332047 C21.779663,18.613907 21.190796,18.031723 20.464355,18.031723 C20.464355,18.031723 8.462769,18.031723 8.462769,18.031723 C7.736328,18.031723 7.147339,18.613907 7.147339,19.332047 C7.147339,19.332047 7.147339,29.218307 7.147339,29.218307 C7.147339,29.936447 7.736328,30.518631 8.462769,30.518631 C8.462769,30.518631 20.464355,30.518631 20.464355,30.518631 C21.190796,30.518631 21.779663,29.936447 21.779663,29.218307 C21.779663,29.218307 21.779663,19.332047 21.779663,19.332047 ZM19.148926,27.917984 C19.148926,27.917984 9.778198,27.917984 9.778198,27.917984 C9.778198,27.917984 9.778198,20.632355 9.778198,20.632355 C9.778198,20.632355 19.148926,20.632355 19.148926,20.632355 C19.148926,20.632355 19.148926,27.917984 19.148926,27.917984 ZM20.464355,33.320923 C20.464355,33.320923 8.462769,33.320923 8.462769,33.320923 C7.736328,33.320923 7.147339,33.903107 7.147339,34.62123 C7.147339,35.339355 7.736328,35.921555 8.462769,35.921555 C8.462769,35.921555 20.464355,35.921555 20.464355,35.921555 C21.190796,35.921555 21.779663,35.339355 21.779663,34.62123 C21.779663,33.903107 21.190796,33.320923 20.464355,33.320923 ZM20.464355,38.441055 C20.464355,38.441055 8.462769,38.441055 8.462769,38.441055 C7.736328,38.441055 7.147339,39.02327 7.147339,39.74138 C7.147339,40.45952 7.736328,41.041702 8.462769,41.041702 C8.462769,41.041702 20.464355,41.041702 20.464355,41.041702 C21.190796,41.041702 21.779663,40.45952 21.779663,39.74138 C21.779663,39.02327 21.190796,38.441055 20.464355,38.441055 ZM20.464355,43.561203 C20.464355,43.561203 8.462769,43.561203 8.462769,43.561203 C7.736328,43.561203 7.147339,44.143417 7.147339,44.861526 C7.147339,45.579666 7.736328,46.16185 8.462769,46.16185 C8.462769,46.16185 20.464355,46.16185 20.464355,46.16185 C21.190796,46.16185 21.779663,45.579666 21.779663,44.861526 C21.779663,44.143417 21.190796,43.561203 20.464355,43.561203 ZM20.464355,48.68135 C20.464355,48.68135 8.462769,48.68135 8.462769,48.68135 C7.736328,48.68135 7.147339,49.263565 7.147339,49.98169 C7.147339,50.699814 7.736328,51.282013 8.462769,51.282013 C8.462769,51.282013 20.464355,51.282013 20.464355,51.282013 C21.190796,51.282013 21.779663,50.699814 21.779663,49.98169 C21.779663,49.263565 21.190796,48.68135 20.464355,48.68135 ZM20.464355,53.801514 C20.464355,53.801514 8.462769,53.801514 8.462769,53.801514 C7.736328,53.801514 7.147339,54.383698 7.147339,55.101837 C7.147339,55.819946 7.736328,56.40216 8.462769,56.40216 C8.462769,56.40216 20.464355,56.40216 20.464355,56.40216 C21.190796,56.40216 21.779663,55.819946 21.779663,55.101837 C21.779663,54.383698 21.190796,53.801514 20.464355,53.801514 ZM20.464355,58.92166 C20.464355,58.92166 8.462769,58.92166 8.462769,58.92166 C7.736328,58.92166 7.147339,59.503876 7.147339,60.221985 C7.147339,60.940125 7.736328,61.52231 8.462769,61.52231 C8.462769,61.52231 20.464355,61.52231 20.464355,61.52231 C21.190796,61.52231 21.779663,60.940125 21.779663,60.221985 C21.779663,59.503876 21.190796,58.92166 20.464355,58.92166 ZM20.464355,64.04181 C20.464355,64.04181 8.462769,64.04181 8.462769,64.04181 C7.736328,64.04181 7.147339,64.62402 7.147339,65.34213 C7.147339,66.06027 7.736328,66.64244 8.462769,66.64244 C8.462769,66.64244 20.464355,66.64244 20.464355,66.64244 C21.190796,66.64244 21.779663,66.06027 21.779663,65.34213 C21.779663,64.62402 21.190796,64.04181 20.464355,64.04181 ZM38.320435,18.031723 C38.320435,18.031723 26.318848,18.031723 26.318848,18.031723 C25.592407,18.031723 25.00354,18.613907 25.00354,19.332047 C25.00354,20.050156 25.592407,20.632355 26.318848,20.632355 C26.318848,20.632355 38.320435,20.632355 38.320435,20.632355 C39.046875,20.632355 39.635742,20.050156 39.635742,19.332047 C39.635742,18.613907 39.046875,18.031723 38.320435,18.031723 ZM38.320435,23.15187 C38.320435,23.15187 26.318848,23.15187 26.318848,23.15187 C25.592407,23.15187 25.00354,23.73407 25.00354,24.452179 C25.00354,25.170319 25.592407,25.752502 26.318848,25.752502 C26.318848,25.752502 38.320435,25.752502 38.320435,25.752502 C39.046875,25.752502 39.635742,25.170319 39.635742,24.452179 C39.635742,23.73407 39.046875,23.15187 38.320435,23.15187 ZM38.320435,28.272003 C38.320435,28.272003 26.318848,28.272003 26.318848,28.272003 C25.592407,28.272003 25.00354,28.854218 25.00354,29.572357 C25.00354,30.290466 25.592407,30.872665 26.318848,30.872665 C26.318848,30.872665 38.320435,30.872665 38.320435,30.872665 C39.046875,30.872665 39.635742,30.290466 39.635742,29.572357 C39.635742,28.854218 39.046875,28.272003 38.320435,28.272003 ZM38.320435,33.39215 C38.320435,33.39215 26.318848,33.39215 26.318848,33.39215 C25.592407,33.39215 25.00354,33.974365 25.00354,34.692505 C25.00354,35.410614 25.592407,35.992813 26.318848,35.992813 C26.318848,35.992813 38.320435,35.992813 38.320435,35.992813 C39.046875,35.992813 39.635742,35.410614 39.635742,34.692505 C39.635742,33.974365 39.046875,33.39215 38.320435,33.39215 ZM38.320435,38.785217 C38.320435,38.785217 26.318848,38.785217 26.318848,38.785217 C25.592407,38.785217 25.00354,39.367416 25.00354,40.08554 C25.00354,40.08554 25.00354,48.513702 25.00354,48.513702 C25.00354,49.231827 25.592407,49.81404 26.318848,49.81404 C26.318848,49.81404 38.320435,49.81404 38.320435,49.81404 C39.046875,49.81404 39.635742,49.231827 39.635742,48.513702 C39.635742,48.513702 39.635742,40.08554 39.635742,40.08554 C39.635742,39.367416 39.046875,38.785217 38.320435,38.785217 ZM37.005005,47.21338 C37.005005,47.21338 27.634155,47.21338 27.634155,47.21338 C27.634155,47.21338 27.634155,41.38585 27.634155,41.38585 C27.634155,41.38585 37.005005,41.38585 37.005005,41.38585 C37.005005,41.38585 37.005005,47.21338 37.005005,47.21338 ZM42.13965,9.642899 C42.736816,10.051727 43.556396,9.904343 43.96997,9.314011 C46.036865,6.36261 49.435425,4.600586 53.061035,4.600586 C59.153076,4.600586 64.10962,9.500214 64.10962,15.522781 C64.10962,21.545364 59.15332,26.444809 53.061035,26.444809 C51.568848,26.444809 50.12207,26.156128 48.760742,25.587097 C48.091797,25.307114 47.319946,25.61676 47.036865,26.278183 C46.75403,26.939636 47.066895,27.702484 47.735962,27.9823 C49.42334,28.687775 51.214966,29.045456 53.061035,29.045456 C60.60376,29.045456 66.74048,22.979172 66.74048,15.522781 C66.74048,8.066223 60.60388,1.999939 53.061035,1.999939 C48.572144,1.999939 44.36499,4.180664 41.806885,7.833557 C41.393555,8.424072 41.54248,9.234085 42.13965,9.642899 ZM48.636353,16.823105 C48.636353,16.823105 53.061157,16.823105 53.061157,16.823105 C53.787598,16.823105 54.376587,16.240921 54.376587,15.522781 C54.376587,15.522781 54.376587,11.344925 54.376587,11.344925 C54.376587,10.626816 53.787598,10.044617 53.061157,10.044617 C52.334717,10.044617 51.745728,10.626816 51.745728,11.344925 C51.745728,11.344925 51.745728,14.222458 51.745728,14.222458 C51.745728,14.222458 48.636353,14.222458 48.636353,14.222458 C47.909912,14.222458 47.320923,14.804672 47.320923,15.522781 C47.320923,16.240921 47.909912,16.823105 48.636353,16.823105 Z"/>
</svg>